.
..............................Site Info...........................

 -   http://www.scenetime.com  *_*    

Scenetime .Always on time . friendly online private torrent community ..

     We care to share . Join us on  http://www.scenetime.com 

    Be the first to get new release at  http://www.scenetime.com

        Seed back for speed


...................................NFO:.................................................[IMG]http://i.imgur.com/qD9lu.gif[/IMG]

 
TITLE: 

Lawless 2012 TS XViD v2 - INSPiRAL

IMDB: 
 
http://www.imdb.com/title/tt1212450/


SOURCES:

VIDEO -  Matine 720p THANKS
AUDIO -  Matine 720p THANKS
SUBS  - None Add

STATS:

Video
ID                               : 0
Format                           : MPEG-4 Visual
Format profile                   : Advanced Simple@L5
Format settings, BVOP            : 2
Format settings, QPel            : No
Format settings, GMC             : No warppoints
Format settings, Matrix          : Default (MPEG)
Muxing mode                      : Packed bitstream
Codec ID                         : XVID
Codec ID/Hint                    : XviD
Duration                         : 1h 49mn
Bit rate                         : 1 663 Kbps
Width                            : 720 pixels
Height                           : 304 pixels
Display aspect ratio             : 2.35:1
Frame rate                       : 25.000 fps
Color space                      : YUV
Chroma subsampling               : 4:2:0
Bit depth                        : 8 bits
Scan type                        : Progressive
Compression mode                 : Lossy
Bits/(Pixel*Frame)               : 0.304
Stream size                      : 1.27 GiB (92%)
Writing library                  : XviD 64

Audio
ID                               : 1
Format                           : MPEG Audio
Format version                   : Version 1
Format profile                   : Layer 3
Mode                             : Joint stereo
Mode extension                   : MS Stereo
Codec ID                         : 55
Codec ID/Hint                    : MP3
Duration                         : 1h 49mn
Bit rate mode                    : Constant
Bit rate                         : 128 Kbps
Channel(s)                       : 2 channels
Sampling rate                    : 44.1 KHz
Compression mode                 : Lossy
Stream size                      : 99.8 MiB (7%)
Alignment                        : Split accross interleaves
Interleave, duration             : 40 ms (1.00 video frame)
Interleave, preload duration     : 500 ms




NOTES:

Ok heres the V2 we said :P ......this time using matines 720p.
First cleaned the video up changing the colours,brightness,contrast,had to use a smoother and then 
finally gave it some life back.
Now colours does change again but not as bad as possession did ....so tried to find a nice medium.
Audio was good but in quiet parts there was a fair bit of noise ....so dropped in AA lowered the EQ bands that
needed to be lowered....lowered thr DB's as it was way too powerful and then converted to mp3 and remuxed.

Enjoy ......oh had a chuckle at the start of the audio,you'll see lmfao .


SCREENS:

[img]http://i.imgrz.com/R6Daw.png[/img] 
[img]http://i.imgrz.com/FXALz.png[/img] 
[img]http://i.imgrz.com/V9zLS.png[/img] 
[img]http://i.imgrz.com/mtGpk.png[/img] 
[img]http://i.imgrz.com/ULfsX.png[/img] 
[img]http://i.imgrz.com/64iJv.png[/img] 

GREETZ: 

Past,Present and Future

[IMG]http://i.imgur.com/qD9lu.gif[/IMG]